<?xml version="1.0" encoding="UTF-8" standalone="no"?>
<svg
   xmlns:dc="http://purl.org/dc/elements/1.1/"
   xmlns:cc="http://creativecommons.org/ns#"
   xmlns:rdf="http://www.w3.org/1999/02/22-rdf-syntax-ns#"
   xmlns:svg="http://www.w3.org/2000/svg"
   xmlns="http://www.w3.org/2000/svg"
   xmlns:sodipodi="http://sodipodi.sourceforge.net/DTD/sodipodi-0.dtd"
   xmlns:inkscape="http://www.inkscape.org/namespaces/inkscape"
   viewBox="0 0 760.16003 452.96002"
   height="452.96002"
   width="760.16003"
   xml:space="preserve"
   id="svg6278"
   version="1.1"
   sodipodi:docname="cinder-image-volume-cache.svg"
   inkscape:version="0.92.3 (2405546, 2018-03-11)"><sodipodi:namedview
     pagecolor="#ffffff"
     bordercolor="#666666"
     borderopacity="1"
     objecttolerance="10"
     gridtolerance="10"
     guidetolerance="10"
     inkscape:pageopacity="0"
     inkscape:pageshadow="2"
     inkscape:window-width="1920"
     inkscape:window-height="1080"
     id="namedview7066"
     showgrid="false"
     inkscape:zoom="1.5686274"
     inkscape:cx="386.88527"
     inkscape:cy="227.47"
     inkscape:window-x="0"
     inkscape:window-y="0"
     inkscape:window-maximized="1"
     inkscape:current-layer="g6286"
     fit-margin-top="10"
     fit-margin-left="10"
     fit-margin-right="10"
     fit-margin-bottom="10" /><metadata
     id="metadata6284"><rdf:RDF><cc:Work
         rdf:about=""><dc:format>image/svg+xml</dc:format><dc:type
           rdf:resource="http://purl.org/dc/dcmitype/StillImage" /><dc:title></dc:title></cc:Work></rdf:RDF></metadata><defs
     id="defs6282"><clipPath
       id="clipPath6294"
       clipPathUnits="userSpaceOnUse"><path
         style="clip-rule:evenodd"
         id="path6292"
         d="M 0,0 H 612 V 432.00003 H 0 Z"
         inkscape:connector-curvature="0" /></clipPath></defs><g
     transform="matrix(1.3333333,0,0,1.3333333,-28.400001,-66.800001)"
     id="g6286"><g
       transform="matrix(0.72000003,0,0,0.72000003,0.36000001,0.36000001)"
       id="g6302"><path
         id="path6304"
         style="fill:#000000;fill-opacity:1;fill-rule:nonzero;stroke:none"
         d="m 374,80 h 102 c 2.48526,0 4.60657,0.878677 6.36392,2.636032 C 484.12128,84.393394 484.99997,86.514717 485,89 v 42 c -3e-5,2.48527 -0.87872,4.6066 -2.63608,6.36395 C 480.60657,139.12131 478.48526,139.99998 476,140 H 374 c -2.48529,-2e-5 -4.60663,-0.87869 -6.36398,-2.63605 C 365.87866,135.6066 365,133.48527 365,131 V 89 c 0,-2.485283 0.87866,-4.606606 2.63602,-6.363968 C 369.39337,80.878677 371.51471,80 374,80 Z"
         inkscape:connector-curvature="0" /><path
         id="path6306"
         style="fill:none;stroke:#000000;stroke-width:1;stroke-linecap:butt;stroke-linejoin:miter;stroke-miterlimit:10;stroke-dasharray:none;stroke-opacity:1"
         d="m 374,80 h 102 c 2.48526,0 4.60657,0.878677 6.36392,2.636032 C 484.12128,84.393394 484.99997,86.514717 485,89 v 42 c -3e-5,2.48527 -0.87872,4.6066 -2.63608,6.36395 C 480.60657,139.12131 478.48526,139.99998 476,140 H 374 c -2.48529,-2e-5 -4.60663,-0.87869 -6.36398,-2.63605 C 365.87866,135.6066 365,133.48527 365,131 V 89 c 0,-2.485283 0.87866,-4.606606 2.63602,-6.363968 C 369.39337,80.878677 371.51471,80 374,80 Z"
         inkscape:connector-curvature="0" /></g><g
       transform="matrix(0.72000003,0,0,0.72000003,279.36002,74.880005)"
       id="g6308"><text
   id="text6312"
   style="font-variant:normal;font-weight:normal;font-size:12px;font-family:Helvetica;-inkscape-font-specification:Helvetica;writing-mode:lr-tb;fill:#000000;fill-opacity:1;fill-rule:nonzero;stroke:none"
   transform="translate(0.640625,11)"><tspan
     id="tspan6310"
     y="0"
     x="0 8.6660156 15.339844 22.013672 25.347656 29.34375 36.017578 38.683594 42.017578 48.691406 55.365234 62.039062 68.712891"
     style="fill:#ffffff;fill-opacity:1">Control nodes</tspan></text>

</g><g
       transform="matrix(0.72000003,0,0,0.72000003,0.36000001,0.36000001)"
       id="g6314"><path
         id="path6316"
         style="fill:#66cc00;fill-opacity:1;fill-rule:nonzero;stroke:none"
         d="m 40,290 h 120 v 60 H 40 Z"
         inkscape:connector-curvature="0" /><path
         id="path6318"
         style="fill:none;stroke:#000000;stroke-width:1;stroke-linecap:butt;stroke-linejoin:miter;stroke-miterlimit:10;stroke-dasharray:none;stroke-opacity:1"
         d="m 40,290 h 120 v 60 H 40 Z"
         inkscape:connector-curvature="0" /></g><g
       transform="matrix(0.72000003,0,0,0.72000003,57.768049,226.08)"
       id="g6320"><text
   id="text6324"
   style="font-variant:normal;font-weight:normal;font-size:12px;font-family:Helvetica;-inkscape-font-specification:Helvetica;writing-mode:lr-tb;fill:#000000;fill-opacity:1;fill-rule:nonzero;stroke:none"
   transform="translate(0.96875,11)"><tspan
     id="tspan6322">AZ Left</tspan></text>

</g><g
       transform="matrix(0.72000003,0,0,0.72000003,0.36000001,0.36000001)"
       id="g6326"><path
         id="path6328"
         style="fill:#66cc00;fill-opacity:1;fill-rule:nonzero;stroke:none"
         d="m 690,290 h 120 v 60 H 690 Z"
         inkscape:connector-curvature="0" /><path
         id="path6330"
         style="fill:none;stroke:#000000;stroke-width:1;stroke-linecap:butt;stroke-linejoin:miter;stroke-miterlimit:10;stroke-dasharray:none;stroke-opacity:1"
         d="m 690,290 h 120 v 60 H 690 Z"
         inkscape:connector-curvature="0" /></g><g
       transform="matrix(0.72000003,0,0,0.72000003,522.88244,226.08)"
       id="g6332"><text
   id="text6336"
   style="font-variant:normal;font-weight:normal;font-size:12px;font-family:Helvetica;-inkscape-font-specification:Helvetica;writing-mode:lr-tb;fill:#000000;fill-opacity:1;fill-rule:nonzero;stroke:none"
   transform="translate(0.96875,11)"><tspan
     id="tspan6334">AZ Right</tspan></text>

</g><g
       transform="matrix(0.72000003,0,0,0.72000003,0.36000001,0.36000001)"
       id="g6338"><path
         id="path6340"
         style="fill:#3399ff;fill-opacity:1;fill-rule:nonzero;stroke:none"
         d="m 395,246 c 0,-21.33 60,-21.33 60,0 v 48 c 0,21.32999 -60,21.32999 -60,0 z"
         inkscape:connector-curvature="0" /><path
         id="path6342"
         style="fill:none;stroke:#000000;stroke-width:1;stroke-linecap:butt;stroke-linejoin:miter;stroke-miterlimit:10;stroke-dasharray:none;stroke-opacity:1"
         d="m 395,246 c 0,-21.33 60,-21.33 60,0 v 48 c 0,21.32999 -60,21.32999 -60,0 z"
         inkscape:connector-curvature="0" /><path
         id="path6344"
         style="fill:none;stroke:#000000;stroke-width:1;stroke-linecap:butt;stroke-linejoin:miter;stroke-miterlimit:10;stroke-dasharray:none;stroke-opacity:1"
         d="m 395,246 c 0,16 60,16 60,0"
         inkscape:connector-curvature="0" /></g><g
       transform="matrix(0.72000003,0,0,0.72000003,295.92001,198.72)"
       id="g6346"><text
   id="text6350"
   style="font-variant:normal;font-weight:normal;font-size:12px;font-family:Helvetica;-inkscape-font-specification:Helvetica;writing-mode:lr-tb;fill:#000000;fill-opacity:1;fill-rule:nonzero;stroke:none"
   transform="translate(0.65625,11)"><tspan
     id="tspan6348"
     y="0"
     x="0 8.6660156 15.339844 22.013672">Ceph</tspan></text>

</g><g
       transform="matrix(0.72000003,0,0,0.72000003,0.36000001,0.36000001)"
       id="g6352"><path
         id="path6354"
         style="fill:#3399ff;fill-opacity:1;fill-rule:nonzero;stroke:none"
         d="m 70,386 c 0,-21.32999 60,-21.32999 60,0 v 48 c 0,21.32999 -60,21.32999 -60,0 z"
         inkscape:connector-curvature="0" /><path
         id="path6356"
         style="fill:none;stroke:#000000;stroke-width:1;stroke-linecap:butt;stroke-linejoin:miter;stroke-miterlimit:10;stroke-dasharray:none;stroke-opacity:1"
         d="m 70,386 c 0,-21.32999 60,-21.32999 60,0 v 48 c 0,21.32999 -60,21.32999 -60,0 z"
         inkscape:connector-curvature="0" /><path
         id="path6358"
         style="fill:none;stroke:#000000;stroke-width:1;stroke-linecap:butt;stroke-linejoin:miter;stroke-miterlimit:10;stroke-dasharray:none;stroke-opacity:1"
         d="m 70,386 c 0,16 60,16 60,0"
         inkscape:connector-curvature="0" /></g><g
       transform="matrix(0.72000003,0,0,0.72000003,61.200001,299.52002)"
       id="g6360"><text
   id="text6364"
   style="font-variant:normal;font-weight:normal;font-size:12px;font-family:Helvetica;-inkscape-font-specification:Helvetica;writing-mode:lr-tb;fill:#000000;fill-opacity:1;fill-rule:nonzero;stroke:none"
   transform="translate(0.65625,11)"><tspan
     id="tspan6362"
     y="0"
     x="0 8.0039062 18 26.666016">EMC²</tspan></text>

</g><g
       transform="matrix(0.72000003,0,0,0.72000003,0.36000001,0.36000001)"
       id="g6366"><path
         id="path6368"
         style="fill:#3399ff;fill-opacity:1;fill-rule:nonzero;stroke:none"
         d="m 720,386 c 0,-21.32999 60,-21.32999 60,0 v 48 c 0,21.32999 -60,21.32999 -60,0 z"
         inkscape:connector-curvature="0" /><path
         id="path6370"
         style="fill:none;stroke:#000000;stroke-width:1;stroke-linecap:butt;stroke-linejoin:miter;stroke-miterlimit:10;stroke-dasharray:none;stroke-opacity:1"
         d="m 720,386 c 0,-21.32999 60,-21.32999 60,0 v 48 c 0,21.32999 -60,21.32999 -60,0 z"
         inkscape:connector-curvature="0" /><path
         id="path6372"
         style="fill:none;stroke:#000000;stroke-width:1;stroke-linecap:butt;stroke-linejoin:miter;stroke-miterlimit:10;stroke-dasharray:none;stroke-opacity:1"
         d="m 720,386 c 0,16 60,16 60,0"
         inkscape:connector-curvature="0" /></g><g
       transform="matrix(0.72000003,0,0,0.72000003,525.60004,299.52002)"
       id="g6374"><text
   id="text6378"
   style="font-variant:normal;font-weight:normal;font-size:12px;font-family:Helvetica;-inkscape-font-specification:Helvetica;writing-mode:lr-tb;fill:#000000;fill-opacity:1;fill-rule:nonzero;stroke:none"
   transform="translate(0.984375,11)"><tspan
     id="tspan6376"
     y="0"
     x="0 8.6660156 15.339844 18.673828 26.677734 33.351562">NetApp</tspan></text>

</g><g
       transform="matrix(0.72000003,0,0,0.72000003,0.36000001,0.36000001)"
       id="g6380"><path
         id="path6382"
         style="fill:#ffffff;fill-opacity:1;fill-rule:nonzero;stroke:none"
         d="m 365,330 h 120 v 60 H 365 Z"
         inkscape:connector-curvature="0" /><path
         id="path6384"
         style="fill:none;stroke:#000000;stroke-width:1;stroke-linecap:butt;stroke-linejoin:miter;stroke-miterlimit:10;stroke-dasharray:none;stroke-opacity:1"
         d="m 365,330 h 120 v 60 H 365 Z"
         inkscape:connector-curvature="0" /></g><g
       transform="matrix(0.72000003,0,0,0.72000003,292.32001,244.8)"
       id="g6386"><text
   id="text6390"
   style="font-variant:normal;font-weight:normal;font-size:12px;font-family:Helvetica;-inkscape-font-specification:Helvetica;writing-mode:lr-tb;fill:#000000;fill-opacity:1;fill-rule:nonzero;stroke:none"
   transform="translate(0.984375,11)"><tspan
     id="tspan6388"
     y="0"
     x="0 9.3339844 12 18.673828 25.347656 31.347656">Glance</tspan></text>

<text
   id="text6394"
   style="font-variant:normal;font-weight:normal;font-size:12px;font-family:Helvetica;-inkscape-font-specification:Helvetica;writing-mode:lr-tb;fill:#000000;fill-opacity:1;fill-rule:nonzero;stroke:none"
   transform="translate(2.328125,25)"><tspan
     id="tspan6392"
     y="0"
     x="0 8.6660156 11.332031 18.005859 24.679688 31.353516">Cinder</tspan></text>

<text
   id="text6398"
   style="font-variant:normal;font-weight:normal;font-size:12px;font-family:Helvetica;-inkscape-font-specification:Helvetica;writing-mode:lr-tb;fill:#000000;fill-opacity:1;fill-rule:nonzero;stroke:none"
   transform="translate(6,39)"><tspan
     id="tspan6396"
     y="0"
     x="0 8.6660156 15.339844 21.339844">Nova</tspan></text>

</g><g
       transform="matrix(0.72000003,0,0,0.72000003,0.36000001,0.36000001)"
       id="g6400"><path
         id="path6402"
         style="fill:#ffffff;fill-opacity:1;fill-rule:nonzero;stroke:none"
         d="m 40,470 h 120 v 60 H 40 Z"
         inkscape:connector-curvature="0" /><path
         id="path6404"
         style="fill:none;stroke:#000000;stroke-width:1;stroke-linecap:butt;stroke-linejoin:miter;stroke-miterlimit:10;stroke-dasharray:none;stroke-opacity:1"
         d="m 40,470 h 120 v 60 H 40 Z"
         inkscape:connector-curvature="0" /></g><g
       transform="matrix(0.72000003,0,0,0.72000003,59.040001,350.64001)"
       id="g6406"><text
   id="text6410"
   style="font-variant:normal;font-weight:normal;font-size:12px;font-family:Helvetica;-inkscape-font-specification:Helvetica;writing-mode:lr-tb;fill:#000000;fill-opacity:1;fill-rule:nonzero;stroke:none"
   transform="translate(0.3125,11)"><tspan
     id="tspan6408"
     y="0"
     x="0 8.6660156 11.332031 18.005859 24.679688 31.353516">Cinder</tspan></text>

<text
   id="text6414"
   style="font-variant:normal;font-weight:normal;font-size:12px;font-family:Helvetica;-inkscape-font-specification:Helvetica;writing-mode:lr-tb;fill:#000000;fill-opacity:1;fill-rule:nonzero;stroke:none"
   transform="translate(3.984375,25)"><tspan
     id="tspan6412"
     y="0"
     x="0 8.6660156 15.339844 21.339844">Nova</tspan></text>

</g><g
       transform="matrix(0.72000003,0,0,0.72000003,0.36000001,0.36000001)"
       id="g6416"><path
         id="path6418"
         style="fill:#ffffff;fill-opacity:1;fill-rule:nonzero;stroke:none"
         d="m 690,470 h 120 v 60 H 690 Z"
         inkscape:connector-curvature="0" /><path
         id="path6420"
         style="fill:none;stroke:#000000;stroke-width:1;stroke-linecap:butt;stroke-linejoin:miter;stroke-miterlimit:10;stroke-dasharray:none;stroke-opacity:1"
         d="m 690,470 h 120 v 60 H 690 Z"
         inkscape:connector-curvature="0" /></g><g
       transform="matrix(0.72000003,0,0,0.72000003,527.04004,350.64001)"
       id="g6422"><text
   id="text6426"
   style="font-variant:normal;font-weight:normal;font-size:12px;font-family:Helvetica;-inkscape-font-specification:Helvetica;writing-mode:lr-tb;fill:#000000;fill-opacity:1;fill-rule:nonzero;stroke:none"
   transform="translate(0.3125,11)"><tspan
     id="tspan6424"
     y="0"
     x="0 8.6660156 11.332031 18.005859 24.679688 31.353516">Cinder</tspan></text>

<text
   id="text6430"
   style="font-variant:normal;font-weight:normal;font-size:12px;font-family:Helvetica;-inkscape-font-specification:Helvetica;writing-mode:lr-tb;fill:#000000;fill-opacity:1;fill-rule:nonzero;stroke:none"
   transform="translate(3.984375,25)"><tspan
     id="tspan6428"
     y="0"
     x="0 8.6660156 15.339844 21.339844">Nova</tspan></text>

</g><g
       transform="matrix(0.72000003,0,0,0.72000003,0.36000001,0.36000001)"
       id="g6432"><path
         id="path6434"
         style="fill:#66cc00;fill-opacity:1;fill-rule:nonzero;stroke:none"
         d="m 365,150 h 120 v 60 H 365 Z"
         inkscape:connector-curvature="0" /><path
         id="path6436"
         style="fill:none;stroke:#000000;stroke-width:1;stroke-linecap:butt;stroke-linejoin:miter;stroke-miterlimit:10;stroke-dasharray:none;stroke-opacity:1"
         d="m 365,150 h 120 v 60 H 365 Z"
         inkscape:connector-curvature="0" /></g><g
       transform="matrix(0.72000003,0,0,0.72000003,285.95251,125.28001)"
       id="g6438"><text
   id="text6442"
   style="font-variant:normal;font-weight:normal;font-size:12px;font-family:Helvetica;-inkscape-font-specification:Helvetica;writing-mode:lr-tb;fill:#000000;fill-opacity:1;fill-rule:nonzero;stroke:none"
   transform="translate(0.96875,11)"><tspan
     id="tspan6440">AZ Center</tspan></text>

</g><g
       transform="matrix(0.72000003,0,0,0.72000003,0.36000001,0.36000001)"
       id="g6444"><path
         id="path6446"
         style="fill:none;stroke:#000000;stroke-width:1;stroke-linecap:butt;stroke-linejoin:miter;stroke-miterlimit:10;stroke-dasharray:none;stroke-opacity:1"
         d="M 394,278 135.7,407.14999"
         inkscape:connector-curvature="0" /><path
         id="path6448"
         style="fill:#000000;fill-opacity:1;fill-rule:nonzero;stroke:none"
         d="m 131,409.5 4.7,-6.26001 v 3.91 l 3.13,2.35001 z"
         inkscape:connector-curvature="0" /><path
         id="path6450"
         style="fill:none;stroke:#000000;stroke-width:1;stroke-linecap:butt;stroke-linejoin:miter;stroke-miterlimit:10;stroke-dasharray:none;stroke-opacity:1"
         d="m 131,409.5 4.7,-6.26001 v 3.91 l 3.13,2.35001 z"
         inkscape:connector-curvature="0" /><path
         id="path6452"
         style="fill:none;stroke:#000000;stroke-width:1;stroke-linecap:butt;stroke-linejoin:miter;stroke-miterlimit:10;stroke-dasharray:none;stroke-opacity:1"
         d="M 455,280 714.28003,407.20001"
         inkscape:connector-curvature="0" /><path
         id="path6454"
         style="fill:#000000;fill-opacity:1;fill-rule:nonzero;stroke:none"
         d="m 719,409.51001 -7.83002,0.06 3.11005,-2.37 -0.03,-3.92001 4.75,6.23001 z"
         inkscape:connector-curvature="0" /><path
         id="path6456"
         style="fill:none;stroke:#000000;stroke-width:1;stroke-linecap:butt;stroke-linejoin:miter;stroke-miterlimit:10;stroke-dasharray:none;stroke-opacity:1"
         d="m 719,409.51001 -7.83002,0.06 3.11005,-2.37 -0.03,-3.92001 4.75,6.23001 z"
         inkscape:connector-curvature="0" /></g></g></svg>